<?xml version="1.0" encoding="UTF-8" standalone="no"?><!DOCTYPE svg PUBLIC "-//W3C//DTD SVG 1.1//EN" "http://www.w3.org/Graphics/SVG/1.1/DTD/svg11.dtd"><svg width="100%" height="100%" viewBox="0 0 2434 2434" version="1.1" xmlns="http://www.w3.org/2000/svg" xmlns:xlink="http://www.w3.org/1999/xlink" xml:space="preserve" xmlns:serif="http://www.serif.com/" style="fill-rule:evenodd;clip-rule:evenodd;stroke-linejoin:round;stroke-miterlimit:2;"><path d="M81.17,778.285c69.177,-180.327 183.298,-348.619 345.137,-486.319c171.884,-146.245 325.156,-201.558 397.533,-226.378c56.763,-19.465 379.601,-130.174 750.005,-11.46c224.466,71.941 323.587,152.838 411.035,219.763c15.258,11.678 13.946,12.84 29.161,24.957c28.973,23.074 25.66,26.261 54.158,49.963c7.796,6.484 24.672,20.52 85.808,93.283c158.661,188.835 217.977,392.738 228.865,430.167c138.165,474.951 -47.444,827.67 -94.445,920.296c-56.954,112.239 -164.965,238.853 -195.865,270.063c-43.287,43.721 -293.838,296.78 -681.721,355.955c-423.792,64.654 -722.456,-104.876 -765.88,-126.836c-85.934,-43.458 -208.978,-134.858 -261.771,-187.461c-58.804,-58.524 -264.05,-252.911 -348.022,-594.138c-36.315,-147.569 -44.835,-303.471 -24.03,-457.457c12.554,-92.914 35.785,-185.131 70.03,-274.398Zm2216.416,648.959c-71.151,-166.449 -179.923,-269.629 -298.445,-355.769c-166.305,-126.478 -338.645,-152.116 -483.099,-123.317c-110.315,21.993 -204.367,75.733 -267.049,140.553c-9.624,9.952 -9.374,9.134 -19.488,18.987c56.476,-342.079 -300.827,-757.852 -892.119,-358.875c-58.437,39.431 -117.892,88.065 -170.417,136.084c-107.898,347.729 -43.864,721.867 180.395,1007.221c-61.738,-406.433 79.676,-764.215 410.864,-959.408c127.489,-75.138 194.553,51.805 201.137,79.323c47.611,198.981 -317.214,248.965 -333.218,275.917c-49.474,83.32 -72.215,179.867 -76.076,196.257c-64.246,272.755 18.73,517.174 99.351,675.043c220.095,134.836 496.298,190.155 766.165,140.805c-428.121,-255.424 -519.092,-776.917 -488.886,-787.513c147.945,-51.896 142.559,-63.973 213.632,-140.066c-10.712,382.785 147.929,562.246 505.093,766.639c29.656,16.971 62.045,32.867 93.215,46.478c67.906,-37.116 133.543,-82.428 195.721,-136.415c-285.153,-95.498 -744.702,-534.842 -346.593,-794.004c185.157,-120.534 401.089,12.84 403.146,148.293c1.768,116.428 -56.291,142.86 -70.61,151.927c-148.775,43.616 -284.132,-194.411 -288.297,-155.997c-20.484,188.928 77.893,415.552 471.1,467.257c71.525,-97.45 156.595,-246.03 194.475,-439.422Zm19.467,-237.433l-0.018,-0.646c-7.739,-271.389 -116.054,-462.795 -128.163,-486.932c-33.916,-67.61 -123.114,-196.391 -184.829,-252.101c-448.518,-449.924 -1000.313,-357.774 -1271.71,-222.057c-216.574,108.301 -355.423,261.074 -442.24,395.772c604.224,-369.774 890.402,-34.513 941.399,25.23c119.666,140.19 96.58,200.082 140.734,187.435c104.96,-30.063 202.492,-42.442 292.604,-40.2c299.053,7.441 516.376,175.917 652.224,393.497Z" style="fill:#fff;"/></svg>